HIERARCHY
ROOT Hips
{
	OFFSET -0.001795 -0.223333 0.028219
	CHANNELS 6 Xposition Yposition Zposition Zrotation Yrotation Xrotation 
	JOINT LeftUpLeg
	{
		OFFSET 0.069520 -0.091406 -0.006815
		CHANNELS 3 Zrotation Yrotation Xrotation
		JOINT LeftLeg
		{
			OFFSET 0.034277 -0.375199 -0.004496
			CHANNELS 3 Zrotation Yrotation Xrotation
			JOINT LeftFoot
			{
				OFFSET -0.013596 -0.397961 -0.043693
				CHANNELS 3 Zrotation Yrotation Xrotation
				JOINT LeftToe
				{
					OFFSET 0.026358 -0.055791 0.119288
					CHANNELS 3 Zrotation Yrotation Xrotation
					End Site
					{
						OFFSET 0.000000 0.000000 0.000000
					}
				}
			}
		}
	}
	JOINT RightUpLeg
	{
		OFFSET -0.067670 -0.090522 -0.004320
		CHANNELS 3 Zrotation Yrotation Xrotation
		JOINT RightLeg
		{
			OFFSET -0.038290 -0.382569 -0.008850
			CHANNELS 3 Zrotation Yrotation Xrotation
			JOINT RightFoot
			{
				OFFSET 0.015774 -0.398415 -0.042312
				CHANNELS 3 Zrotation Yrotation Xrotation
				JOINT RightToe
				{
					OFFSET -0.025372 -0.048144 0.123348
					CHANNELS 3 Zrotation Yrotation Xrotation
					End Site
					{
						OFFSET 0.000000 0.000000 0.000000
					}
				}
			}
		}
	}
	JOINT Spine
	{
		OFFSET -0.002533 0.108963 -0.026696
		CHANNELS 3 Zrotation Yrotation Xrotation
		JOINT Spine1
		{
			OFFSET 0.005487 0.135180 0.001092
			CHANNELS 3 Zrotation Yrotation Xrotation
			JOINT Spine2
			{
				OFFSET 0.001457 0.052922 0.025425
				CHANNELS 3 Zrotation Yrotation Xrotation
				JOINT Neck
				{
					OFFSET -0.002778 0.213870 -0.042857
					CHANNELS 3 Zrotation Yrotation Xrotation
					JOINT Head
					{
						OFFSET 0.005152 0.064970 0.051349
						CHANNELS 3 Zrotation Yrotation Xrotation
						End Site
						{
							OFFSET 0.000000 0.000000 0.000000
						}
					}
				}
				JOINT LeftShoulder
				{
					OFFSET 0.078845 0.121749 -0.034090
					CHANNELS 3 Zrotation Yrotation Xrotation
					JOINT LeftArm
					{
						OFFSET 0.090977 0.030469 -0.008868
						CHANNELS 3 Zrotation Yrotation Xrotation
						JOINT LeftForeArm
						{
							OFFSET 0.259612 -0.012772 -0.027456
							CHANNELS 3 Zrotation Yrotation Xrotation
							JOINT LeftHand
							{
								OFFSET 0.249234 0.008986 -0.001171
								CHANNELS 3 Zrotation Yrotation Xrotation
								End Site
								{
									OFFSET 0.000000 0.000000 0.000000
								}
							}
						}
					}
				}
				JOINT RightShoulder
				{
					OFFSET -0.081759 0.118833 -0.038615
					CHANNELS 3 Zrotation Yrotation Xrotation
					JOINT RightArm
					{
						OFFSET -0.096012 0.032551 -0.009143
						CHANNELS 3 Zrotation Yrotation Xrotation
						JOINT RightForeArm
						{
							OFFSET -0.253742 -0.013329 -0.021401
							CHANNELS 3 Zrotation Yrotation Xrotation
							JOINT RightHand
							{
								OFFSET -0.255298 0.007772 -0.005559
								CHANNELS 3 Zrotation Yrotation Xrotation
								End Site
								{
									OFFSET 0.000000 0.000000 0.000000
								}
							}
						}
					}
				}
			}
		}
	}
}
MOTION
Frames: 7
Frame Time: 0.050000
0.021765 0.941397 -0.057899 -0.573704 -14.088436 -0.778505 5.671081 0.484932 5.804196 -1.674128 0.341604 -5.316936 8.772692 17.658432 14.163478 0.000000 0.000000 0.000000 -7.186882 0.333632 4.267759 2.423467 -0.245130 -6.066839 -4.359275 -15.362915 16.512651 0.000000 0.000000 0.000000 -5.870188 0.095780 -1.322573 5.279377 -1.304803 -18.936284 3.932459 5.477740 30.786994 1.976091 0.185643 -29.814160 0.000000 0.000000 0.000000 -25.550133 -1.317473 0.711147 -56.897418 -10.561143 -4.733501 -127.482651 -48.727442 99.090404 0.000000 0.000000 0.000000 15.089864 15.241026 5.962922 64.870135 11.075682 -2.992805 146.534192 51.616753 125.109287 0.000000 0.000000 0.000000 
0.021894 0.941387 -0.057837 -0.522554 -14.349139 -0.884080 5.678835 0.502535 5.956795 -1.842611 0.358739 -5.316798 8.878600 17.809564 14.225312 0.000000 0.000000 0.000000 -7.239609 0.343487 4.332428 2.368874 -0.241648 -6.091495 -4.229501 -15.177278 16.451627 0.000000 0.000000 0.000000 -5.747292 0.093318 -1.254363 5.391925 -1.342256 -18.916480 3.885534 5.728001 30.728042 2.094517 0.137735 -29.814185 0.000000 0.000000 0.000000 -25.706578 -1.141697 0.565867 -56.583922 -9.971032 -4.996326 -126.604096 -48.013836 96.805959 0.000000 0.000000 0.000000 15.061376 15.238831 5.973286 65.206899 10.973795 -3.047592 145.996320 51.378066 123.999837 0.000000 0.000000 0.000000 
0.022019 0.941279 -0.057678 -0.412750 -14.567603 -0.927206 5.563176 0.526688 6.192917 -1.902799 0.373477 -5.619548 8.957290 17.918120 14.340904 0.000000 0.000000 0.000000 -7.384638 0.364446 4.324838 2.371538 -0.239405 -6.112184 -4.137009 -15.037630 16.364968 0.000000 0.000000 0.000000 -5.624610 0.091899 -1.418239 5.342744 -1.341117 -18.820287 3.883943 5.702497 30.846089 1.890800 0.223620 -29.894826 0.000000 0.000000 0.000000 -25.897554 -0.859734 0.449991 -56.414602 -9.469372 -5.254045 -125.869227 -47.516642 95.253304 0.000000 0.000000 0.000000 14.753301 15.398092 5.997140 65.614312 10.954636 -3.089910 146.085437 51.193008 123.872114 0.000000 0.000000 0.000000 
0.022198 0.941296 -0.057546 -0.368810 -14.547591 -1.101191 5.547215 0.557494 6.585603 -1.967319 0.389758 -5.993698 8.893834 17.826514 14.401552 0.000000 0.000000 0.000000 -7.509357 0.373228 4.586793 2.487951 -0.241729 -6.245144 -4.128258 -15.026499 16.407072 0.000000 0.000000 0.000000 -5.545324 0.087556 -1.416214 5.411360 -1.367389 -18.756151 3.914589 5.617944 30.896900 1.810370 0.241425 -29.744364 0.000000 0.000000 0.000000 -26.034753 -0.656555 0.353445 -56.417202 -8.875585 -5.550126 -125.786521 -47.074424 94.621472 0.000000 0.000000 0.000000 14.580380 15.302584 5.925033 65.897532 10.687157 -3.267383 145.522239 50.852380 122.474151 0.000000 0.000000 0.000000 
0.022368 0.941084 -0.057654 -0.376041 -14.365837 -1.206641 5.639105 0.558611 6.664653 -2.092372 0.400485 -5.994795 8.791951 17.692488 14.251360 0.000000 0.000000 0.000000 -7.589497 0.374278 4.727163 2.649208 -0.246446 -6.235244 -4.219554 -15.140935 16.390515 0.000000 0.000000 0.000000 -5.422403 0.082905 -1.393954 5.504482 -1.390353 -18.761697 3.845716 5.389428 30.966797 1.814577 0.222234 -29.821148 0.000000 0.000000 0.000000 -26.178125 -0.571399 0.340217 -56.375960 -8.543958 -5.724147 -126.106476 -46.916199 94.910996 0.000000 0.000000 0.000000 14.499582 15.357245 5.923635 65.842285 10.239381 -3.543800 145.036301 50.415765 121.020139 0.000000 0.000000 0.000000 
0.022520 0.940874 -0.058004 -0.361561 -14.386113 -1.236965 5.565397 0.557478 6.609088 -1.999934 0.389218 -5.880810 8.824977 17.746698 14.174024 0.000000 0.000000 0.000000 -7.761459 0.394287 4.585355 2.918620 -0.250916 -5.980975 -4.234899 -15.141109 16.268457 0.000000 0.000000 0.000000 -5.248508 0.080335 -1.329461 5.273253 -1.328390 -18.770867 3.990432 5.309740 30.892301 1.572295 0.344713 -29.945722 0.000000 0.000000 0.000000 -26.150394 -0.607318 0.398739 -56.582466 -8.601227 -5.704084 -126.542632 -47.109574 95.862567 0.000000 0.000000 0.000000 14.108939 15.232215 5.822135 65.951061 9.585829 -3.934453 143.722211 49.912055 118.024488 0.000000 0.000000 0.000000 
0.022632 0.940694 -0.058537 -0.341794 -14.182378 -1.364701 5.531211 0.546073 6.471796 -1.932953 0.372874 -5.524258 8.753520 17.656480 13.977097 0.000000 0.000000 0.000000 -7.837787 0.395017 4.610006 3.042578 -0.256154 -5.771349 -4.349316 -15.283212 16.197276 0.000000 0.000000 0.000000 -5.216637 0.076155 -1.101135 5.278143 -1.319325 -18.869823 3.999413 5.236147 30.796294 1.449036 0.422866 -30.000281 0.000000 0.000000 0.000000 -26.092311 -0.456698 0.285573 -56.887494 -8.978861 -5.527045 -127.188771 -47.239525 96.956487 0.000000 0.000000 0.000000 14.150726 15.132593 5.783302 65.808357 8.826699 -4.353967 141.902040 49.662122 114.597487 0.000000 0.000000 0.000000 
